<svg width="29" height="28" viewBox="0 0 29 28" fill="none" xmlns="http://www.w3.org/2000/svg">
<path fill-rule="evenodd" clip-rule="evenodd" d="M29 3.45481C29 1.54677 27.4532 0 25.5452 0H3.45481C1.54677 0 0 1.54677 0 3.45481V24.1837C0 26.0917 1.54677 27.6385 3.45481 27.6385H25.5452C25.6495 27.6385 25.7528 27.6339 25.8548 27.6248C27.3847 27.4889 28.6278 26.3559 28.9298 24.8799C28.9758 24.655 29 24.4222 29 24.1837V3.45481ZM25.5452 1.97418H3.45481C2.63708 1.97418 1.97418 2.63708 1.97418 3.45481V24.1837C1.97418 25.0014 2.63708 25.6643 3.45481 25.6643H4.77437C4.56119 25.2156 4.4419 24.7136 4.4419 24.1837V7.89671C4.4419 5.98867 5.98867 4.4419 7.89671 4.4419H25.5452C26.0751 4.4419 26.5771 4.56119 27.0258 4.77437V3.45481C27.0258 2.63708 26.3629 1.97418 25.5452 1.97418ZM12.3386 25.6643L13.4942 25.6643C13.3851 25.3556 13.3257 25.0233 13.3257 24.6772V16.287C13.3257 14.6515 14.6515 13.3257 16.287 13.3257H25.0517C25.8101 13.3257 26.5019 13.6108 27.0258 14.0797V12.336C27.0244 11.5195 26.362 10.858 25.5452 10.858H12.3386C11.5209 10.858 10.858 11.5209 10.858 12.3386V24.1837C10.858 25.0014 11.5209 25.6643 12.3386 25.6643ZM27.0258 9.21627C26.5771 9.00309 26.0751 8.88381 25.5452 8.88381H12.3386C10.4306 8.88381 8.8838 10.4306 8.8838 12.3386V24.1837C8.8838 24.7136 9.00309 25.2156 9.21627 25.6643H7.89671L7.89298 25.6643C7.07696 25.6623 6.41608 25.0002 6.41608 24.1837V7.89671C6.41608 7.07898 7.07898 6.41608 7.89671 6.41608H25.5452C26.3629 6.41608 27.0258 7.07898 27.0258 7.89672V9.21627Z" fill="#141526"/>
</svg>
